<?xml version="1.0" encoding="utf-8"?>
<svg fill="#000000" height="50px" width="50px" version="1.1" id="Capa_1" viewBox="0 0 30 30" xmlns="http://www.w3.org/2000/svg">
  <g style="transform-origin: -2.49093px 15.2779px;" transform="matrix(1.519505, -0.026534, 0.035984, 2.061799, -9.512415, -0.278609)">
    <path d="M 18.05 17.802 C 17.855 17.396 17.546 17.12 17.216 17.012 C 16.955 16.927 16.682 16.949 16.442 17.095 L 15.772 15.694 C 16.225 14.717 17.245 12.527 17.427 12.182 C 17.663 11.737 17.269 11.195 17.269 11.195 L 15.354 14.823 L 13.591 11.142 C 13.591 11.142 13.175 11.671 13.392 12.123 C 13.56 12.473 14.488 14.69 14.901 15.681 L 14.171 17.063 C 13.938 16.908 13.665 16.879 13.402 16.957 C 13.067 17.054 12.747 17.322 12.535 17.721 C 12.155 18.438 12.277 19.307 12.805 19.664 C 13.038 19.822 13.312 19.85 13.579 19.773 C 13.913 19.675 14.235 19.408 14.446 19.009 C 14.538 18.833 14.6 18.649 14.635 18.465 L 14.636 18.465 C 14.636 18.463 14.635 18.463 14.636 18.461 C 14.638 18.445 14.64 18.43 14.643 18.413 C 14.818 17.268 15.113 16.687 15.321 16.407 C 15.517 16.693 15.789 17.282 15.915 18.432 C 15.917 18.449 15.919 18.464 15.92 18.48 C 15.921 18.481 15.92 18.483 15.921 18.484 L 15.921 18.483 C 15.947 18.668 16.001 18.855 16.086 19.033 C 16.282 19.437 16.591 19.714 16.921 19.822 C 17.185 19.907 17.46 19.886 17.7 19.736 C 18.242 19.395 18.399 18.531 18.05 17.802 Z M 13.932 18.663 C 13.813 18.889 13.627 19.058 13.436 19.113 C 13.351 19.14 13.227 19.153 13.114 19.078 C 12.875 18.917 12.845 18.453 13.049 18.066 C 13.171 17.838 13.352 17.673 13.546 17.616 C 13.63 17.591 13.754 17.577 13.868 17.653 C 14.107 17.814 14.137 18.277 13.932 18.663 Z M 17.415 19.141 C 17.299 19.213 17.176 19.196 17.093 19.167 C 16.903 19.107 16.725 18.932 16.615 18.702 C 16.427 18.309 16.476 17.849 16.721 17.694 C 16.838 17.622 16.961 17.64 17.046 17.667 C 17.236 17.729 17.41 17.9 17.522 18.132 C 17.709 18.524 17.661 18.987 17.415 19.141 Z" style="transform-box: fill-box; transform-origin: 50% 50%;">
      <animateTransform type="rotate" additive="sum" attributeName="transform" values="0;40" dur="0.5s" fill="freeze" keyTimes="0; 1" calcMode="spline" keySplines="0.42 0 1 1"/>
      <animateTransform type="translate" additive="sum" attributeName="transform" values="0 0;3 -5" dur="0.5s" fill="freeze" begin="0.5s" keyTimes="0; 1"/>
      <animateTransform type="translate" additive="sum" attributeName="transform" values="0 0;-3 5" begin="1s" dur="0.5s" fill="freeze" keyTimes="0; 1"/>
      <animateTransform type="rotate" additive="sum" attributeName="transform" values="0;-40;-80" begin="1.5s" dur="0.5s" fill="freeze" keyTimes="0; 0.5; 1"/>
      <animateTransform type="translate" additive="sum" attributeName="transform" values="0 0;-3 -5" begin="2s" dur="0.5s" fill="freeze" keyTimes="0; 1"/>
      <animateTransform type="translate" additive="sum" attributeName="transform" values="0 0;3 5" begin="2.5s" dur="0.5s" fill="freeze" keyTimes="0; 1"/>
      <animateTransform type="rotate" additive="sum" attributeName="transform" values="0;40" begin="3s" dur="0.5s" fill="freeze" keyTimes="0; 1" end="4.9s"/>
    </path>
  </g>
</svg>